<svg width="269" height="278" viewBox="0 0 269 278" fill="none" xmlns="http://www.w3.org/2000/svg">
<rect width="269" height="278" fill="#F4F9FC"/>
<path d="M149.324 208.028L181.281 156.678C158.383 165.382 135.646 174.422 112.887 183.369L112.607 182.905L146.826 137.647L133.351 122.921C132.274 123.547 113.652 145.492 107.62 153.093C101.158 161.285 83.2139 182.44 81.9861 183.264C81.8461 176.789 82.4493 170.499 82.5353 163.757L13.2692 211.951L13 211.614C13.3016 211.231 13.5708 210.825 13.8833 210.454C17.1789 206.636 20.4748 202.841 23.76 199.023C30.3659 191.341 36.9718 183.663 43.578 175.988C51.5913 166.705 59.6155 157.421 67.6505 148.138L85.6805 127.249L91.1842 120.844L99.6716 128.839L133.061 89.8943C146.502 106.059 159.664 122.12 173.052 138.239L183.898 127.563L203.985 149.182L224.029 170.766L244.062 192.339L264 213.796L263.731 214.202L193.355 187.628C195.089 180.212 196.791 172.96 198.492 165.707L198.148 165.509L173.881 187.059L149.766 208.458L149.324 208.028Z" fill="url(#paint0_linear_14_46)"/>
<path d="M90.2451 110.841L91.8881 109.024L90.1497 107.209L88.5092 109.127L90.2451 110.841ZM99.432 120.43L97.7888 122.247L99.4792 124.011L101.122 122.196L99.432 120.43ZM10.8668 207.322C11.7485 206.293 11.6863 204.69 10.7278 203.743C9.76943 202.796 8.27779 202.863 7.39617 203.892L10.8668 207.322ZM12.6789 197.722C11.7972 198.752 11.8597 200.354 12.8179 201.302C13.7764 202.249 15.268 202.182 16.1496 201.152L12.6789 197.722ZM22.9417 193.219C23.8234 192.19 23.7609 190.587 22.8027 189.64C21.8442 188.693 20.3524 188.76 19.471 189.79L22.9417 193.219ZM24.7533 183.619C23.8719 184.649 23.9341 186.252 24.8926 187.199C25.8511 188.146 27.3428 188.079 28.2243 187.049L24.7533 183.619ZM35.0159 179.116C35.8976 178.086 35.8351 176.484 34.8766 175.537C33.9181 174.589 32.4264 174.656 31.5449 175.686L35.0159 179.116ZM36.8271 169.516C35.9456 170.545 36.0081 172.148 36.9666 173.095C37.9251 174.042 39.4166 173.975 40.2982 172.945L36.8271 169.516ZM47.0894 165.012C47.9709 163.982 47.9084 162.379 46.9499 161.432C45.9912 160.485 44.4997 160.552 43.6182 161.582L47.0894 165.012ZM48.8999 155.411C48.0185 156.441 48.0811 158.044 49.0396 158.991C49.9981 159.938 51.4899 159.871 52.3713 158.841L48.8999 155.411ZM59.162 150.907C60.0435 149.877 59.981 148.274 59.0223 147.327C58.0638 146.38 56.5721 146.448 55.6906 147.478L59.162 150.907ZM60.9723 141.306C60.0909 142.336 60.1533 143.939 61.112 144.886C62.0707 145.833 63.5623 145.765 64.4437 144.736L60.9723 141.306ZM71.234 136.801C72.1154 135.771 72.0528 134.169 71.094 133.222C70.1356 132.275 68.6438 132.342 67.7626 133.372L71.234 136.801ZM73.0436 127.201C72.1624 128.23 72.225 129.833 73.1838 130.78C74.1422 131.727 75.634 131.66 76.5152 130.63L73.0436 127.201ZM83.3053 122.694C84.1867 121.664 84.1238 120.062 83.1651 119.115C82.2064 118.168 80.7149 118.236 79.8336 119.266L83.3053 122.694ZM85.1144 113.094C84.2332 114.124 84.2959 115.727 85.2546 116.673C86.2133 117.62 87.7048 117.553 88.5863 116.523L85.1144 113.094ZM91.1859 115.354C92.1199 116.329 93.6125 116.306 94.52 115.303C95.4275 114.299 95.406 112.696 94.472 111.721L91.1859 115.354ZM98.4912 115.916C97.5572 114.941 96.0644 114.964 95.1569 115.968C94.2496 116.971 94.2711 118.575 95.2052 119.55L98.4912 115.916ZM104.302 118.682C105.21 117.679 105.189 116.076 104.255 115.1C103.321 114.125 101.828 114.148 100.921 115.151L104.302 118.682ZM105.864 109.685C104.957 110.689 104.978 112.293 105.912 113.268C106.847 114.242 108.339 114.219 109.247 113.215L105.864 109.685ZM115.602 106.183C116.508 105.179 116.486 103.576 115.551 102.601C114.617 101.627 113.124 101.651 112.217 102.655L115.602 106.183ZM117.156 97.1847C116.25 98.1891 116.273 99.793 117.208 100.767C118.143 101.741 119.635 101.716 120.542 100.712L117.156 97.1847ZM126.891 93.6742C127.798 92.6693 127.774 91.0657 126.839 90.0921C125.903 89.1186 124.411 89.1442 123.504 90.1488L126.891 93.6742ZM128.44 84.6744C127.534 85.6795 127.558 87.2831 128.493 88.2564C129.429 89.2294 130.922 89.2033 131.828 88.1982L128.44 84.6744ZM7.47059 211.288C8.60267 209.966 9.73475 208.644 10.8668 207.322L7.39617 203.892C6.26414 205.214 5.13208 206.536 4 207.858L7.47059 211.288ZM16.1496 201.152C18.4139 198.508 20.6779 195.864 22.9417 193.219L19.471 189.79C17.2069 192.434 14.9429 195.078 12.6789 197.722L16.1496 201.152ZM28.2243 187.049C30.4883 184.405 32.7521 181.76 35.0159 179.116L31.5449 175.686C29.2811 178.331 27.0173 180.975 24.7533 183.619L28.2243 187.049ZM40.2982 172.945C42.562 170.301 44.8258 167.656 47.0894 165.012L43.6182 161.582C41.3547 164.227 39.0909 166.871 36.8271 169.516L40.2982 172.945ZM52.3713 158.841C54.6349 156.196 56.8987 153.551 59.162 150.907L55.6906 147.478C53.4273 150.122 51.1637 152.767 48.8999 155.411L52.3713 158.841ZM64.4437 144.736C66.7073 142.091 68.9706 139.446 71.234 136.801L67.7626 133.372C65.4992 136.017 63.2357 138.662 60.9723 141.306L64.4437 144.736ZM76.5152 130.63C78.7788 127.985 81.0421 125.339 83.3053 122.694L79.8336 119.266C77.5703 121.911 75.3072 124.556 73.0436 127.201L76.5152 130.63ZM88.5863 116.523C89.7179 115.2 90.8494 113.878 91.9811 112.555L88.5092 109.127C87.3775 110.449 86.2461 111.772 85.1144 113.094L88.5863 116.523ZM88.602 112.658L91.1859 115.354L94.472 111.721L91.8881 109.024L88.602 112.658ZM95.2052 119.55L97.7888 122.247L101.075 118.613L98.4912 115.916L95.2052 119.55ZM101.122 122.196C102.182 121.025 103.242 119.854 104.302 118.682L100.921 115.151C99.8608 116.322 98.8012 117.493 97.7414 118.664L101.122 122.196ZM109.247 113.215C111.365 110.872 113.483 108.528 115.602 106.183L112.217 102.655C110.1 105 107.982 107.343 105.864 109.685L109.247 113.215ZM120.542 100.712C122.658 98.367 124.775 96.0211 126.891 93.6742L123.504 90.1488C121.388 92.4953 119.272 94.8407 117.156 97.1847L120.542 100.712ZM131.828 88.1982C132.885 87.0249 133.942 85.8511 135 84.677L131.611 81.1539C130.554 82.3277 129.497 83.501 128.44 84.6744L131.828 88.1982Z" fill="url(#paint1_linear_14_46)"/>
<path d="M131.152 75.5225C128.565 72.4044 126.163 69.1128 123.962 65.6678C120.956 61.0646 118.414 56.1282 116.38 50.9427C114.514 46.2864 113.392 41.3231 113.06 36.2631C112.933 34.3972 113.007 32.5217 113.282 30.6742C113.874 26.9071 115.406 23.3853 117.715 20.4877C120.024 17.5902 123.022 15.4267 126.386 14.2301C129.749 13.0334 133.352 12.849 136.806 13.6965C140.259 14.5441 143.433 16.3915 145.986 19.0401C148.369 21.5008 150.133 24.5737 151.115 27.971C152.009 31.241 152.229 34.6825 151.759 38.0539C151.36 41.3834 150.593 44.6495 149.476 47.7832C147.627 52.9653 145.21 57.8898 142.275 62.4513C139.722 66.4965 136.895 70.3319 133.816 73.9257C133.161 74.6897 132.473 75.4312 131.701 76.2981C131.5 75.9787 131.331 75.7391 131.152 75.5225ZM132.791 19.5648C130.104 19.4977 127.46 20.2919 125.192 21.8471C122.924 23.4022 121.136 25.6485 120.052 28.301C118.969 30.9538 118.639 33.8935 119.106 36.7482C119.572 39.6029 120.813 42.2441 122.672 44.3374C124.531 46.4304 126.924 47.8816 129.548 48.5067C132.172 49.1319 134.909 48.9031 137.412 47.8491C139.915 46.7953 142.072 44.9638 143.61 42.5864C145.148 40.2093 145.997 37.3934 146.05 34.4951C146.099 30.6273 144.735 26.8939 142.255 24.1006C139.774 21.3073 136.375 19.6783 132.791 19.5648Z" fill="#63C0B9"/>
<path d="M132.5 86.9808C134.433 86.9808 136 85.4589 136 83.5818C136 81.7046 134.433 80.1827 132.5 80.1827C130.567 80.1827 129 81.7046 129 83.5818C129 85.4589 130.567 86.9808 132.5 86.9808Z" fill="#EA5556"/>
<path d="M20.4697 229.609V241.373H17.6283V231.828H12.0524V241.373H9.21094V229.609H20.4697ZM28.9138 232.197C29.7966 232.197 30.5965 232.393 31.3142 232.786C32.0434 233.167 32.6142 233.71 33.0255 234.416C33.4369 235.11 33.6431 235.923 33.6431 236.852C33.6431 237.782 33.4369 238.6 33.0255 239.306C32.6142 240 32.0434 240.544 31.3142 240.936C30.5965 241.317 29.7966 241.507 28.9138 241.507C27.7026 241.507 26.749 241.143 26.0552 240.415V244.633H23.3025V232.332H25.932V233.374C26.6145 232.59 27.6081 232.197 28.9138 232.197ZM28.4375 239.356C29.1438 239.356 29.7193 239.132 30.1669 238.684C30.626 238.225 30.8551 237.614 30.8551 236.852C30.8551 236.091 30.626 235.486 30.1669 235.037C29.7193 234.578 29.1438 234.348 28.4375 234.348C27.7312 234.348 27.149 234.578 26.6908 235.037C26.2432 235.486 26.0198 236.091 26.0198 236.852C26.0198 237.614 26.2432 238.225 26.6908 238.684C27.149 239.132 27.7312 239.356 28.4375 239.356ZM40.0198 241.507C39.0195 241.507 38.1195 241.311 37.3196 240.919C36.5313 240.516 35.9137 239.961 35.467 239.256C35.0194 238.55 34.7961 237.749 34.7961 236.852C34.7961 235.956 35.0194 235.155 35.467 234.449C35.9137 233.744 36.5313 233.195 37.3196 232.802C38.1195 232.399 39.0195 232.197 40.0198 232.197C41.0191 232.197 41.9134 232.399 42.7018 232.802C43.4902 233.195 44.1077 233.744 44.5544 234.449C45.0011 235.155 45.2254 235.956 45.2254 236.852C45.2254 237.749 45.0011 238.55 44.5544 239.256C44.1077 239.961 43.4902 240.516 42.7018 240.919C41.9134 241.311 41.0191 241.507 40.0198 241.507ZM40.0198 239.356C40.7251 239.356 41.3016 239.132 41.7483 238.684C42.2074 238.225 42.4365 237.614 42.4365 236.852C42.4365 236.091 42.2074 235.486 41.7483 235.037C41.3016 234.578 40.7251 234.348 40.0198 234.348C39.3135 234.348 38.7313 234.578 38.2722 235.037C37.814 235.486 37.584 236.091 37.584 236.852C37.584 237.614 37.814 238.225 38.2722 238.684C38.7313 239.132 39.3135 239.356 40.0198 239.356ZM54.7241 234.483H49.8535V241.373H47.1181V232.332H54.7241V234.483ZM61.7766 232.197C62.6595 232.197 63.4593 232.393 64.177 232.786C64.9062 233.167 65.477 233.71 65.8884 234.416C66.2998 235.11 66.5059 235.923 66.5059 236.852C66.5059 237.782 66.2998 238.6 65.8884 239.306C65.477 240 64.9062 240.544 64.177 240.936C63.4593 241.317 62.6595 241.507 61.7766 241.507C60.5654 241.507 59.6119 241.143 58.918 240.415V244.633H56.1653V232.332H58.7949V233.374C59.4773 232.59 60.4709 232.197 61.7766 232.197ZM61.3003 239.356C62.0066 239.356 62.5821 239.132 63.0298 238.684C63.4889 238.225 63.718 237.614 63.718 236.852C63.718 236.091 63.4889 235.486 63.0298 235.037C62.5821 234.578 62.0066 234.348 61.3003 234.348C60.594 234.348 60.0118 234.578 59.5537 235.037C59.106 235.486 58.8827 236.091 58.8827 236.852C58.8827 237.614 59.106 238.225 59.5537 238.684C60.0118 239.132 60.594 239.356 61.3003 239.356ZM71.9683 232.197C73.4391 232.197 74.5682 232.534 75.3566 233.206C76.145 233.867 76.5391 234.869 76.5391 236.214V241.373H73.9621V240.247C73.4448 241.087 72.4799 241.507 71.0682 241.507C70.339 241.507 69.7033 241.39 69.1622 241.154C68.6334 240.919 68.2278 240.594 67.9452 240.18C67.6627 239.765 67.5215 239.295 67.5215 238.768C67.5215 237.928 67.8507 237.267 68.5093 236.785C69.1803 236.303 70.2092 236.063 71.5979 236.063H73.7855C73.7855 235.491 73.6032 235.054 73.2386 234.752C72.874 234.438 72.3271 234.281 71.5979 234.281C71.0921 234.281 70.5919 234.36 70.0975 234.516C69.6155 234.662 69.2042 234.864 68.8625 235.121L67.8746 233.29C68.3919 232.942 69.0094 232.674 69.7272 232.483C70.4564 232.293 71.2037 232.197 71.9683 232.197ZM71.7564 239.743C72.2269 239.743 72.645 239.642 73.0096 239.44C73.3742 239.227 73.6328 238.919 73.7855 238.516V237.592H71.8976C70.7685 237.592 70.2035 237.945 70.2035 238.651C70.2035 238.987 70.339 239.256 70.6091 239.457C70.8916 239.648 71.2744 239.743 71.7564 239.743ZM88.194 241.373V235.962L85.3535 240.499H84.1891L81.4183 235.945V241.373H78.9301V232.332H81.8068L84.842 237.558L88.0709 232.332H90.6469L90.6822 241.373H88.194ZM102.583 241.373V235.962L99.7429 240.499H98.5785L95.8077 235.945V241.373H93.3194V232.332H96.1961L99.2313 237.558L102.46 232.332H105.036L105.072 241.373H102.583ZM111.397 232.197C112.868 232.197 113.997 232.534 114.785 233.206C115.573 233.867 115.968 234.869 115.968 236.214V241.373H113.391V240.247C112.873 241.087 111.908 241.507 110.497 241.507C109.768 241.507 109.132 241.39 108.591 241.154C108.062 240.919 107.655 240.594 107.374 240.18C107.091 239.765 106.95 239.295 106.95 238.768C106.95 237.928 107.279 237.267 107.938 236.785C108.609 236.303 109.638 236.063 111.026 236.063H113.214C113.214 235.491 113.032 235.054 112.667 234.752C112.303 234.438 111.756 234.281 111.026 234.281C110.521 234.281 110.02 234.36 109.526 234.516C109.044 234.662 108.633 234.864 108.291 235.121L107.303 233.29C107.82 232.942 108.438 232.674 109.156 232.483C109.885 232.293 110.632 232.197 111.397 232.197ZM111.185 239.743C111.655 239.743 112.074 239.642 112.438 239.44C112.803 239.227 113.061 238.919 113.214 238.516V237.592H111.326C110.197 237.592 109.632 237.945 109.632 238.651C109.632 238.987 109.768 239.256 110.038 239.457C110.32 239.648 110.703 239.743 111.185 239.743ZM132.62 241.373V235.962L129.78 240.499H128.614L125.844 235.945V241.373H123.356V232.332H126.233L129.268 237.558L132.497 232.332H135.073L135.108 241.373H132.62ZM142.192 241.507C141.192 241.507 140.292 241.311 139.492 240.919C138.704 240.516 138.086 239.961 137.64 239.256C137.193 238.55 136.969 237.749 136.969 236.852C136.969 235.956 137.193 235.155 137.64 234.449C138.086 233.744 138.704 233.195 139.492 232.802C140.292 232.399 141.192 232.197 142.192 232.197C143.193 232.197 144.086 232.399 144.874 232.802C145.663 233.195 146.28 233.744 146.727 234.449C147.175 235.155 147.398 235.956 147.398 236.852C147.398 237.749 147.175 238.55 146.727 239.256C146.28 239.961 145.663 240.516 144.874 240.919C144.086 241.311 143.193 241.507 142.192 241.507ZM142.192 239.356C142.899 239.356 143.474 239.132 143.922 238.684C144.381 238.225 144.61 237.614 144.61 236.852C144.61 236.091 144.381 235.486 143.922 235.037C143.474 234.578 142.899 234.348 142.192 234.348C141.486 234.348 140.904 234.578 140.446 235.037C139.987 235.486 139.757 236.091 139.757 236.852C139.757 237.614 139.987 238.225 140.446 238.684C140.904 239.132 141.486 239.356 142.192 239.356ZM158.259 232.332V241.373H155.506V234.483H152.506L152.418 236.079C152.371 237.267 152.253 238.253 152.065 239.037C151.877 239.821 151.571 240.437 151.148 240.886C150.724 241.334 150.136 241.558 149.383 241.558C148.983 241.558 148.506 241.491 147.953 241.356L148.095 239.205C148.283 239.227 148.418 239.239 148.5 239.239C148.913 239.239 149.218 239.099 149.418 238.819C149.63 238.527 149.771 238.163 149.841 237.726C149.912 237.278 149.965 236.69 150.001 235.962L150.142 232.332H158.259ZM165.353 241.507C164.353 241.507 163.453 241.311 162.653 240.919C161.865 240.516 161.247 239.961 160.8 239.256C160.354 238.55 160.129 237.749 160.129 236.852C160.129 235.956 160.354 235.155 160.8 234.449C161.247 233.744 161.865 233.195 162.653 232.802C163.453 232.399 164.353 232.197 165.353 232.197C166.353 232.197 167.247 232.399 168.035 232.802C168.823 233.195 169.441 233.744 169.888 234.449C170.335 235.155 170.559 235.956 170.559 236.852C170.559 237.749 170.335 238.55 169.888 239.256C169.441 239.961 168.823 240.516 168.035 240.919C167.247 241.311 166.353 241.507 165.353 241.507ZM165.353 239.356C166.059 239.356 166.635 239.132 167.083 238.684C167.542 238.225 167.771 237.614 167.771 236.852C167.771 236.091 167.542 235.486 167.083 235.037C166.635 234.578 166.059 234.348 165.353 234.348C164.647 234.348 164.065 234.578 163.606 235.037C163.147 235.486 162.918 236.091 162.918 236.852C162.918 237.614 163.147 238.225 163.606 238.684C164.065 239.132 164.647 239.356 165.353 239.356ZM182.955 239.222V243.322H180.396V241.373H173.726V243.322H171.168V239.222H171.555C172.144 239.211 172.55 238.88 172.773 238.23C172.996 237.581 173.138 236.656 173.197 235.458L173.32 232.332H181.596V239.222H182.955ZM175.685 235.642C175.65 236.561 175.573 237.312 175.455 237.894C175.349 238.477 175.144 238.919 174.838 239.222H178.843V234.483H175.738L175.685 235.642ZM193.916 236.886C193.916 236.92 193.899 237.155 193.864 237.592H186.681C186.811 238.152 187.117 238.594 187.599 238.919C188.082 239.244 188.681 239.407 189.399 239.407C189.893 239.407 190.328 239.34 190.704 239.205C191.093 239.059 191.452 238.835 191.781 238.533L193.246 240.045C192.352 241.02 191.046 241.507 189.328 241.507C188.258 241.507 187.31 241.311 186.488 240.919C185.664 240.516 185.028 239.961 184.582 239.256C184.135 238.55 183.911 237.749 183.911 236.852C183.911 235.967 184.128 235.172 184.563 234.466C185.011 233.749 185.617 233.195 186.382 232.802C187.158 232.399 188.022 232.197 188.976 232.197C189.905 232.197 190.746 232.388 191.498 232.769C192.252 233.15 192.84 233.699 193.263 234.416C193.698 235.121 193.916 235.945 193.916 236.886ZM188.993 234.18C188.37 234.18 187.846 234.348 187.423 234.685C186.999 235.021 186.741 235.48 186.646 236.063H191.323C191.228 235.491 190.97 235.037 190.546 234.701C190.122 234.354 189.605 234.18 188.993 234.18ZM187.14 231.088C186.787 231.088 186.493 230.982 186.258 230.769C186.023 230.545 185.905 230.265 185.905 229.929C185.905 229.593 186.023 229.318 186.258 229.105C186.493 228.881 186.787 228.769 187.14 228.769C187.494 228.769 187.781 228.881 188.005 229.105C188.24 229.318 188.357 229.593 188.357 229.929C188.357 230.265 188.24 230.545 188.005 230.769C187.781 230.982 187.494 231.088 187.14 231.088ZM190.704 231.088C190.352 231.088 190.057 230.982 189.822 230.769C189.599 230.545 189.487 230.265 189.487 229.929C189.487 229.593 189.599 229.318 189.822 229.105C190.057 228.881 190.352 228.769 190.704 228.769C191.058 228.769 191.352 228.881 191.587 229.105C191.822 229.318 191.94 229.593 191.94 229.929C191.94 230.265 191.822 230.545 191.587 230.769C191.352 230.982 191.058 231.088 190.704 231.088ZM205.174 237.945H203.85V241.373H201.133V237.945H199.809L197.797 241.373H194.551L197.533 236.701L194.762 232.332H197.674L199.774 235.844H201.133V232.332H203.85V235.844H205.191L207.309 232.332H210.22L207.45 236.701L210.45 241.373H207.185L205.174 237.945ZM211.881 232.332H214.615V235.861H218.745V232.332H221.498V241.373H218.745V237.995H214.615V241.373H211.881V232.332ZM228.58 241.507C227.58 241.507 226.68 241.311 225.88 240.919C225.091 240.516 224.474 239.961 224.027 239.256C223.581 238.55 223.356 237.749 223.356 236.852C223.356 235.956 223.581 235.155 224.027 234.449C224.474 233.744 225.091 233.195 225.88 232.802C226.68 232.399 227.58 232.197 228.58 232.197C229.58 232.197 230.474 232.399 231.262 232.802C232.05 233.195 232.668 233.744 233.115 234.449C233.562 235.155 233.786 235.956 233.786 236.852C233.786 237.749 233.562 238.55 233.115 239.256C232.668 239.961 232.05 240.516 231.262 240.919C230.474 241.311 229.58 241.507 228.58 241.507ZM228.58 239.356C229.285 239.356 229.862 239.132 230.309 238.684C230.769 238.225 230.998 237.614 230.998 236.852C230.998 236.091 230.769 235.486 230.309 235.037C229.862 234.578 229.285 234.348 228.58 234.348C227.874 234.348 227.291 234.578 226.833 235.037C226.374 235.486 226.145 236.091 226.145 236.852C226.145 237.614 226.374 238.225 226.833 238.684C227.291 239.132 227.874 239.356 228.58 239.356ZM243.284 234.483H238.414V241.373H235.679V232.332H243.284V234.483ZM248.794 241.507C247.794 241.507 246.894 241.311 246.094 240.919C245.306 240.516 244.688 239.961 244.242 239.256C243.794 238.55 243.571 237.749 243.571 236.852C243.571 235.956 243.794 235.155 244.242 234.449C244.688 233.744 245.306 233.195 246.094 232.802C246.894 232.399 247.794 232.197 248.794 232.197C249.794 232.197 250.688 232.399 251.476 232.802C252.265 233.195 252.882 233.744 253.329 234.449C253.776 235.155 254 235.956 254 236.852C254 237.749 253.776 238.55 253.329 239.256C252.882 239.961 252.265 240.516 251.476 240.919C250.688 241.311 249.794 241.507 248.794 241.507ZM248.794 239.356C249.5 239.356 250.076 239.132 250.523 238.684C250.982 238.225 251.211 237.614 251.211 236.852C251.211 236.091 250.982 235.486 250.523 235.037C250.076 234.578 249.5 234.348 248.794 234.348C248.088 234.348 247.506 234.578 247.047 235.037C246.588 235.486 246.359 236.091 246.359 236.852C246.359 237.614 246.588 238.225 247.047 238.684C247.506 239.132 248.088 239.356 248.794 239.356ZM9 253.237H11.7345V258.615L16.3579 253.237H18.8815V262.279H16.146V256.901L11.5408 262.279H9V253.237ZM31.0431 262.413C30.0314 262.413 29.119 262.217 28.3077 261.825C27.5078 261.422 26.8779 260.867 26.4198 260.161C25.9721 259.455 25.7488 258.654 25.7488 257.758C25.7488 256.862 25.9721 256.061 26.4198 255.355C26.8779 254.649 27.5078 254.1 28.3077 253.708C29.119 253.305 30.0314 253.103 31.0431 253.103C32.0424 253.103 32.9129 253.305 33.6545 253.708C34.4076 254.1 34.9545 254.666 35.2952 255.405L33.1601 256.498C32.6667 255.669 31.9546 255.254 31.025 255.254C30.3072 255.254 29.7136 255.478 29.243 255.926C28.7725 256.374 28.5367 256.985 28.5367 257.758C28.5367 258.531 28.7725 259.142 29.243 259.59C29.7136 260.038 30.3072 260.262 31.025 260.262C31.9661 260.262 32.6781 259.847 33.1601 259.018L35.2952 260.128C34.9545 260.845 34.4076 261.405 33.6545 261.808C32.9129 262.211 32.0424 262.413 31.0431 262.413ZM44.9104 255.389H41.6987V262.279H38.9632V255.389H35.7515V253.237H44.9104V255.389ZM55.9754 253.237L51.687 262.833C51.2518 263.875 50.7106 264.609 50.0635 265.035C49.4279 265.46 48.6576 265.673 47.7518 265.673C47.2574 265.673 46.7697 265.6 46.2867 265.455C45.8047 265.309 45.4105 265.107 45.1051 264.85L46.1111 262.984C46.322 263.164 46.5635 263.304 46.8346 263.404C47.1162 263.505 47.3929 263.556 47.664 263.556C48.0401 263.556 48.3455 263.466 48.5812 263.287C48.816 263.119 49.0279 262.833 49.216 262.43L49.2513 262.346L45.1404 253.237H47.9809L50.6457 259.371L53.3278 253.237H55.9754ZM67.2714 260.128V264.228H64.7125V262.279H58.0428V264.228H55.4839V260.128H55.8723C56.4603 260.116 56.8659 259.786 57.0893 259.136C57.3136 258.486 57.4548 257.562 57.513 256.363L57.6371 253.237H65.9132V260.128H67.2714ZM60.0013 256.548C59.966 257.467 59.8896 258.217 59.7722 258.8C59.6663 259.382 59.4601 259.825 59.1547 260.128H63.1596V255.389H60.0548L60.0013 256.548ZM78.2333 257.792C78.2333 257.825 78.2152 258.061 78.1798 258.497H70.9985C71.1274 259.058 71.4338 259.5 71.9158 259.825C72.3978 260.15 72.9981 260.312 73.7159 260.312C74.2093 260.312 74.6446 260.245 75.0216 260.111C75.41 259.965 75.7689 259.741 76.0982 259.439L77.5623 260.951C76.668 261.926 75.3623 262.413 73.6452 262.413C72.5743 262.413 71.6275 262.217 70.8038 261.825C69.9801 261.422 69.3454 260.867 68.8978 260.161C68.4511 259.455 68.2277 258.654 68.2277 257.758C68.2277 256.873 68.4454 256.078 68.8806 255.372C69.3273 254.655 69.9334 254.1 70.6979 253.708C71.4748 253.305 72.3395 253.103 73.2921 253.103C74.2217 253.103 75.0626 253.294 75.8157 253.674C76.5687 254.055 77.1567 254.604 77.5805 255.321C78.0157 256.027 78.2333 256.851 78.2333 257.792ZM73.3093 255.086C72.686 255.086 72.163 255.254 71.7392 255.59C71.3154 255.926 71.0568 256.386 70.9632 256.968H75.6391C75.5446 256.397 75.2859 255.943 74.8622 255.607C74.4393 255.26 73.9211 255.086 73.3093 255.086ZM80.3436 253.237H83.0781V256.767H87.208V253.237H89.9607V262.279H87.208V258.901H83.0781V262.279H80.3436V253.237ZM101.136 253.237V262.279H98.3837V258.918C97.5839 259.299 96.701 259.489 95.737 259.489C94.4543 259.489 93.4836 259.214 92.825 258.666C92.1779 258.105 91.8543 257.243 91.8543 256.078V253.237H94.607V255.91C94.607 256.458 94.754 256.856 95.0489 257.103C95.3543 257.349 95.7895 257.472 96.3546 257.472C97.0723 257.472 97.7481 257.327 98.3837 257.035V253.237H101.136ZM113.009 257.792C113.009 257.825 112.991 258.061 112.955 258.497H105.774C105.903 259.058 106.209 259.5 106.691 259.825C107.173 260.15 107.774 260.312 108.491 260.312C108.985 260.312 109.421 260.245 109.797 260.111C110.186 259.965 110.544 259.741 110.874 259.439L112.338 260.951C111.445 261.926 110.138 262.413 108.421 262.413C107.35 262.413 106.403 262.217 105.579 261.825C104.756 261.422 104.121 260.867 103.673 260.161C103.227 259.455 103.003 258.654 103.003 257.758C103.003 256.873 103.221 256.078 103.656 255.372C104.103 254.655 104.709 254.1 105.473 253.708C106.25 253.305 107.115 253.103 108.068 253.103C108.997 253.103 109.838 253.294 110.591 253.674C111.344 254.055 111.932 254.604 112.356 255.321C112.791 256.027 113.009 256.851 113.009 257.792ZM108.086 255.086C107.462 255.086 106.939 255.254 106.515 255.59C106.091 255.926 105.832 256.386 105.739 256.968H110.415C110.32 256.397 110.062 255.943 109.639 255.607C109.215 255.26 108.698 255.086 108.086 255.086ZM119.637 262.413C118.625 262.413 117.712 262.217 116.901 261.825C116.101 261.422 115.471 260.867 115.013 260.161C114.566 259.455 114.342 258.654 114.342 257.758C114.342 256.862 114.566 256.061 115.013 255.355C115.471 254.649 116.101 254.1 116.901 253.708C117.712 253.305 118.625 253.103 119.637 253.103C120.636 253.103 121.506 253.305 122.248 253.708C123.001 254.1 123.548 254.666 123.889 255.405L121.754 256.498C121.26 255.669 120.548 255.254 119.618 255.254C118.901 255.254 118.307 255.478 117.837 255.926C117.366 256.374 117.13 256.985 117.13 257.758C117.13 258.531 117.366 259.142 117.837 259.59C118.307 260.038 118.901 260.262 119.618 260.262C120.56 260.262 121.272 259.847 121.754 259.018L123.889 260.128C123.548 260.845 123.001 261.405 122.248 261.808C121.506 262.211 120.636 262.413 119.637 262.413ZM129.744 258.85H128.315V262.279H125.562V253.237H128.315V256.75H129.797L132.374 253.237H135.303L131.985 257.573L135.532 262.279H132.285L129.744 258.85ZM141.037 262.413C140.038 262.413 139.138 262.217 138.338 261.825C137.55 261.422 136.932 260.867 136.485 260.161C136.038 259.455 135.815 258.654 135.815 257.758C135.815 256.862 136.038 256.061 136.485 255.355C136.932 254.649 137.55 254.1 138.338 253.708C139.138 253.305 140.038 253.103 141.037 253.103C142.038 253.103 142.932 253.305 143.72 253.708C144.508 254.1 145.125 254.649 145.573 255.355C146.02 256.061 146.243 256.862 146.243 257.758C146.243 258.654 146.02 259.455 145.573 260.161C145.125 260.867 144.508 261.422 143.72 261.825C142.932 262.217 142.038 262.413 141.037 262.413ZM141.037 260.262C141.744 260.262 142.32 260.038 142.767 259.59C143.226 259.13 143.455 258.52 143.455 257.758C143.455 256.996 143.226 256.391 142.767 255.943C142.32 255.484 141.744 255.254 141.037 255.254C140.332 255.254 139.75 255.484 139.291 255.943C138.832 256.391 138.603 256.996 138.603 257.758C138.603 258.52 138.832 259.13 139.291 259.59C139.75 260.038 140.332 260.262 141.037 260.262ZM155.743 255.389H150.872V262.279H148.137V253.237H155.743V255.389ZM161.252 262.413C160.252 262.413 159.351 262.217 158.552 261.825C157.763 261.422 157.146 260.867 156.699 260.161C156.252 259.455 156.028 258.654 156.028 257.758C156.028 256.862 156.252 256.061 156.699 255.355C157.146 254.649 157.763 254.1 158.552 253.708C159.351 253.305 160.252 253.103 161.252 253.103C162.252 253.103 163.145 253.305 163.934 253.708C164.722 254.1 165.34 254.649 165.786 255.355C166.234 256.061 166.457 256.862 166.457 257.758C166.457 258.654 166.234 259.455 165.786 260.161C165.34 260.867 164.722 261.422 163.934 261.825C163.145 262.217 162.252 262.413 161.252 262.413ZM161.252 260.262C161.957 260.262 162.534 260.038 162.981 259.59C163.439 259.13 163.669 258.52 163.669 257.758C163.669 256.996 163.439 256.391 162.981 255.943C162.534 255.484 161.957 255.254 161.252 255.254C160.545 255.254 159.963 255.484 159.505 255.943C159.046 256.391 158.816 256.996 158.816 257.758C158.816 258.52 159.046 259.13 159.505 259.59C159.963 260.038 160.545 260.262 161.252 260.262ZM181.324 255.389H178.113V262.279H175.378V255.389H172.166V253.237H181.324V255.389ZM192.389 253.237L188.102 262.833C187.666 263.875 187.125 264.609 186.478 265.035C185.842 265.46 185.072 265.673 184.166 265.673C183.672 265.673 183.184 265.6 182.701 265.455C182.219 265.309 181.825 265.107 181.519 264.85L182.525 262.984C182.737 263.164 182.978 263.304 183.248 263.404C183.531 263.505 183.807 263.556 184.078 263.556C184.455 263.556 184.76 263.466 184.996 263.287C185.231 263.119 185.442 262.833 185.631 262.43L185.666 262.346L181.554 253.237H184.395L187.06 259.371L189.742 253.237H192.389ZM199.312 253.103C200.194 253.103 200.993 253.299 201.711 253.691C202.44 254.072 203.011 254.616 203.422 255.321C203.835 256.016 204.04 256.828 204.04 257.758C204.04 258.688 203.835 259.506 203.422 260.212C203.011 260.906 202.44 261.45 201.711 261.842C200.993 262.223 200.194 262.413 199.312 262.413C198.099 262.413 197.147 262.049 196.452 261.321V265.539H193.699V253.237H196.329V254.279C197.011 253.495 198.005 253.103 199.312 253.103ZM198.834 260.262C199.541 260.262 200.117 260.038 200.564 259.59C201.023 259.13 201.252 258.52 201.252 257.758C201.252 256.996 201.023 256.391 200.564 255.943C200.117 255.484 199.541 255.254 198.834 255.254C198.129 255.254 197.547 255.484 197.088 255.943C196.641 256.391 196.417 256.996 196.417 257.758C196.417 258.52 196.641 259.13 197.088 259.59C197.547 260.038 198.129 260.262 198.834 260.262ZM205.97 253.237H208.705V258.615L213.329 253.237H215.851V262.279H213.117V256.901L208.511 262.279H205.97V253.237ZM224.57 257.573C225.135 257.741 225.571 257.999 225.876 258.346C226.194 258.694 226.352 259.108 226.352 259.59C226.352 260.161 226.147 260.665 225.735 261.102C225.323 261.528 224.758 261.858 224.041 262.094C223.324 262.329 222.512 262.447 221.606 262.447C220.864 262.447 220.135 262.374 219.417 262.228C218.7 262.082 218.035 261.864 217.423 261.573L218.165 259.741C219.164 260.2 220.271 260.43 221.483 260.43C222.129 260.43 222.635 260.34 223 260.161C223.376 259.971 223.564 259.707 223.564 259.371C223.564 259.08 223.435 258.862 223.176 258.716C222.917 258.559 222.541 258.481 222.047 258.481H220.105V256.851H221.8C222.283 256.851 222.653 256.778 222.912 256.632C223.17 256.487 223.3 256.274 223.3 255.993C223.3 255.702 223.135 255.478 222.806 255.321C222.488 255.164 222.03 255.086 221.429 255.086C220.512 255.086 219.512 255.293 218.429 255.708L217.759 253.893C219.076 253.344 220.358 253.07 221.606 253.07C222.465 253.07 223.229 253.17 223.899 253.372C224.582 253.574 225.117 253.87 225.506 254.263C225.894 254.644 226.088 255.092 226.088 255.607C226.088 256.033 225.952 256.419 225.682 256.767C225.411 257.103 225.041 257.372 224.57 257.573ZM237.62 262.279V256.867L234.778 261.405H233.614L230.843 256.851V262.279H228.355V253.237H231.231L234.267 258.464L237.496 253.237H240.073L240.108 262.279H237.62ZM246.432 253.103C247.903 253.103 249.032 253.439 249.82 254.111C250.609 254.772 251.003 255.775 251.003 257.119V262.279H248.427V261.153C247.909 261.993 246.945 262.413 245.533 262.413C244.803 262.413 244.168 262.295 243.627 262.06C243.097 261.825 242.692 261.5 242.409 261.085C242.127 260.671 241.985 260.2 241.985 259.674C241.985 258.834 242.315 258.173 242.974 257.691C243.644 257.209 244.674 256.968 246.062 256.968H248.25C248.25 256.397 248.068 255.96 247.703 255.657C247.338 255.344 246.791 255.187 246.062 255.187C245.556 255.187 245.056 255.265 244.562 255.422C244.079 255.568 243.668 255.769 243.326 256.027L242.338 254.195C242.856 253.848 243.474 253.579 244.191 253.389C244.921 253.198 245.668 253.103 246.432 253.103ZM246.221 260.648C246.692 260.648 247.109 260.548 247.473 260.346C247.838 260.133 248.097 259.825 248.25 259.422V258.497H246.362C245.232 258.497 244.668 258.85 244.668 259.556C244.668 259.892 244.803 260.161 245.074 260.363C245.356 260.553 245.738 260.648 246.221 260.648Z" fill="#00A19A"/>
<defs>
<linearGradient id="paint0_linear_14_46" x1="252.357" y1="100.814" x2="-17.4138" y2="307.676" gradientUnits="userSpaceOnUse">
<stop offset="0.26" stop-color="#68C0BC"/>
<stop offset="0.53" stop-color="#9CABD8"/>
<stop offset="0.8" stop-color="#E95255"/>
</linearGradient>
<linearGradient id="paint1_linear_14_46" x1="4.10257" y1="146.239" x2="134.982" y2="146.239" gradientUnits="userSpaceOnUse">
<stop offset="0.2" stop-color="#E95255"/>
<stop offset="0.47" stop-color="#9CABD8"/>
<stop offset="0.74" stop-color="#68C0BC"/>
</linearGradient>
</defs>
</svg>
