<svg width="245" height="38" viewBox="0 0 245 38" fill="none" xmlns="http://www.w3.org/2000/svg">
<path d="M11.4697 1.60947V13.3729H8.62827V3.82774H3.05235V13.3729H0.210935V1.60947H11.4697ZM19.9138 4.19741C20.7966 4.19741 21.5965 4.39347 22.3142 4.78558C23.0434 5.16652 23.6142 5.70989 24.0255 6.41568C24.4369 7.11029 24.6431 7.92252 24.6431 8.85237C24.6431 9.78222 24.4369 10.6001 24.0255 11.3059C23.6142 12.0005 23.0434 12.5439 22.3142 12.936C21.5965 13.3169 20.7966 13.5073 19.9138 13.5073C18.7026 13.5073 17.749 13.1432 17.0552 12.415V16.633H14.3025V4.33184H16.932V5.37376C17.6145 4.58952 18.6081 4.19741 19.9138 4.19741ZM19.4375 11.3563C20.1438 11.3563 20.7193 11.1323 21.1669 10.6841C21.626 10.2248 21.8551 9.61425 21.8551 8.85237C21.8551 8.09059 21.626 7.48559 21.1669 7.03749C20.7193 6.57811 20.1438 6.34842 19.4375 6.34842C18.7312 6.34842 18.149 6.57811 17.6908 7.03749C17.2432 7.48559 17.0198 8.09059 17.0198 8.85237C17.0198 9.61425 17.2432 10.2248 17.6908 10.6841C18.149 11.1323 18.7312 11.3563 19.4375 11.3563ZM31.0198 13.5073C30.0195 13.5073 29.1195 13.3113 28.3196 12.9192C27.5313 12.5159 26.9137 11.9613 26.467 11.2555C26.0194 10.5496 25.7961 9.74868 25.7961 8.85237C25.7961 7.95615 26.0194 7.1551 26.467 6.44931C26.9137 5.74352 27.5313 5.19452 28.3196 4.8024C29.1195 4.3991 30.0195 4.19741 31.0198 4.19741C32.0191 4.19741 32.9134 4.3991 33.7018 4.8024C34.4902 5.19452 35.1077 5.74352 35.5544 6.44931C36.0011 7.1551 36.2254 7.95615 36.2254 8.85237C36.2254 9.74868 36.0011 10.5496 35.5544 11.2555C35.1077 11.9613 34.4902 12.5159 33.7018 12.9192C32.9134 13.3113 32.0191 13.5073 31.0198 13.5073ZM31.0198 11.3563C31.7251 11.3563 32.3016 11.1323 32.7483 10.6841C33.2074 10.2248 33.4365 9.61425 33.4365 8.85237C33.4365 8.09059 33.2074 7.48559 32.7483 7.03749C32.3016 6.57811 31.7251 6.34842 31.0198 6.34842C30.3135 6.34842 29.7313 6.57811 29.2722 7.03749C28.814 7.48559 28.584 8.09059 28.584 8.85237C28.584 9.61425 28.814 10.2248 29.2722 10.6841C29.7313 11.1323 30.3135 11.3563 31.0198 11.3563ZM45.7241 6.48294H40.8535V13.3729H38.1181V4.33184H45.7241V6.48294ZM52.7766 4.19741C53.6595 4.19741 54.4593 4.39347 55.177 4.78558C55.9062 5.16652 56.477 5.70989 56.8884 6.41568C57.2998 7.11029 57.5059 7.92252 57.5059 8.85237C57.5059 9.78222 57.2998 10.6001 56.8884 11.3059C56.477 12.0005 55.9062 12.5439 55.177 12.936C54.4593 13.3169 53.6595 13.5073 52.7766 13.5073C51.5654 13.5073 50.6119 13.1432 49.918 12.415V16.633H47.1653V4.33184H49.7949V5.37376C50.4773 4.58952 51.4709 4.19741 52.7766 4.19741ZM52.3003 11.3563C53.0066 11.3563 53.5821 11.1323 54.0298 10.6841C54.4889 10.2248 54.718 9.61425 54.718 8.85237C54.718 8.09059 54.4889 7.48559 54.0298 7.03749C53.5821 6.57811 53.0066 6.34842 52.3003 6.34842C51.594 6.34842 51.0118 6.57811 50.5537 7.03749C50.106 7.48559 49.8827 8.09059 49.8827 8.85237C49.8827 9.61425 50.106 10.2248 50.5537 10.6841C51.0118 11.1323 51.594 11.3563 52.3003 11.3563ZM62.9683 4.19741C64.4391 4.19741 65.5682 4.53353 66.3566 5.2057C67.145 5.86668 67.5391 6.86942 67.5391 8.21384V13.3729H64.9621V12.247C64.4448 13.0872 63.4799 13.5073 62.0682 13.5073C61.339 13.5073 60.7033 13.3897 60.1622 13.1544C59.6334 12.9192 59.2278 12.5943 58.9452 12.1797C58.6627 11.7653 58.5215 11.2947 58.5215 10.7681C58.5215 9.92792 58.8507 9.26694 59.5093 8.7852C60.1803 8.30346 61.2092 8.06259 62.5979 8.06259H64.7855C64.7855 7.49123 64.6032 7.0543 64.2386 6.75181C63.874 6.43813 63.3271 6.28125 62.5979 6.28125C62.0921 6.28125 61.5919 6.35969 61.0975 6.51648C60.6155 6.66218 60.2042 6.86379 59.8625 7.12147L58.8746 5.28977C59.3919 4.94247 60.0094 4.6736 60.7272 4.48309C61.4564 4.29266 62.2037 4.19741 62.9683 4.19741ZM62.7564 11.7428C63.2269 11.7428 63.645 11.642 64.0096 11.4403C64.3742 11.2274 64.6328 10.9194 64.7855 10.5161V9.59179H62.8976C61.7685 9.59179 61.2035 9.94473 61.2035 10.6505C61.2035 10.9866 61.339 11.2555 61.6091 11.4571C61.8916 11.6475 62.2744 11.7428 62.7564 11.7428ZM79.194 13.3729V7.9617L76.3535 12.499H75.1891L72.4183 7.94488V13.3729H69.9301V4.33184H72.8068L75.842 9.55816L79.0709 4.33184H81.6469L81.6822 13.3729H79.194ZM93.5834 13.3729V7.9617L90.7429 12.499H89.5785L86.8077 7.94488V13.3729H84.3194V4.33184H87.1961L90.2313 9.55816L93.4602 4.33184H96.0363L96.0716 13.3729H93.5834ZM102.397 4.19741C103.868 4.19741 104.997 4.53353 105.785 5.2057C106.573 5.86668 106.968 6.86942 106.968 8.21384V13.3729H104.391V12.247C103.873 13.0872 102.908 13.5073 101.497 13.5073C100.768 13.5073 100.132 13.3897 99.5907 13.1544C99.0619 12.9192 98.6553 12.5943 98.3738 12.1797C98.0912 11.7653 97.95 11.2947 97.95 10.7681C97.95 9.92792 98.2793 9.26694 98.9379 8.7852C99.6088 8.30346 100.638 8.06259 102.026 8.06259H104.214C104.214 7.49123 104.032 7.0543 103.667 6.75181C103.303 6.43813 102.756 6.28125 102.026 6.28125C101.521 6.28125 101.02 6.35969 100.526 6.51648C100.044 6.66218 99.6327 6.86379 99.291 7.12147L98.3031 5.28977C98.8204 4.94247 99.438 4.6736 100.156 4.48309C100.885 4.29266 101.632 4.19741 102.397 4.19741ZM102.185 11.7428C102.655 11.7428 103.074 11.642 103.438 11.4403C103.803 11.2274 104.061 10.9194 104.214 10.5161V9.59179H102.326C101.197 9.59179 100.632 9.94473 100.632 10.6505C100.632 10.9866 100.768 11.2555 101.038 11.4571C101.32 11.6475 101.703 11.7428 102.185 11.7428ZM123.62 13.3729V7.9617L120.78 12.499H119.614L116.844 7.94488V13.3729H114.356V4.33184H117.233L120.268 9.55816L123.497 4.33184H126.073L126.108 13.3729H123.62ZM133.192 13.5073C132.192 13.5073 131.292 13.3113 130.492 12.9192C129.704 12.5159 129.086 11.9613 128.64 11.2555C128.193 10.5496 127.969 9.74868 127.969 8.85237C127.969 7.95615 128.193 7.1551 128.64 6.44931C129.086 5.74352 129.704 5.19452 130.492 4.8024C131.292 4.3991 132.192 4.19741 133.192 4.19741C134.193 4.19741 135.086 4.3991 135.874 4.8024C136.663 5.19452 137.28 5.74352 137.727 6.44931C138.175 7.1551 138.398 7.95615 138.398 8.85237C138.398 9.74868 138.175 10.5496 137.727 11.2555C137.28 11.9613 136.663 12.5159 135.874 12.9192C135.086 13.3113 134.193 13.5073 133.192 13.5073ZM133.192 11.3563C133.899 11.3563 134.474 11.1323 134.922 10.6841C135.381 10.2248 135.61 9.61425 135.61 8.85237C135.61 8.09059 135.381 7.48559 134.922 7.03749C134.474 6.57811 133.899 6.34842 133.192 6.34842C132.486 6.34842 131.904 6.57811 131.446 7.03749C130.987 7.48559 130.757 8.09059 130.757 8.85237C130.757 9.61425 130.987 10.2248 131.446 10.6841C131.904 11.1323 132.486 11.3563 133.192 11.3563ZM149.259 4.33184V13.3729H146.506V6.48294H143.506L143.418 8.07931C143.371 9.26694 143.253 10.2528 143.065 11.037C142.877 11.8212 142.571 12.4374 142.148 12.8855C141.724 13.3336 141.136 13.5578 140.383 13.5578C139.983 13.5578 139.506 13.4905 138.953 13.3561L139.095 11.2051C139.283 11.2274 139.418 11.2387 139.5 11.2387C139.913 11.2387 140.218 11.0986 140.418 10.8186C140.63 10.5273 140.771 10.1632 140.841 9.72623C140.912 9.27812 140.965 8.68994 141.001 7.9617L141.142 4.33184H149.259ZM156.353 13.5073C155.353 13.5073 154.453 13.3113 153.653 12.9192C152.865 12.5159 152.247 11.9613 151.8 11.2555C151.354 10.5496 151.129 9.74868 151.129 8.85237C151.129 7.95615 151.354 7.1551 151.8 6.44931C152.247 5.74352 152.865 5.19452 153.653 4.8024C154.453 4.3991 155.353 4.19741 156.353 4.19741C157.353 4.19741 158.247 4.3991 159.035 4.8024C159.823 5.19452 160.441 5.74352 160.888 6.44931C161.335 7.1551 161.559 7.95615 161.559 8.85237C161.559 9.74868 161.335 10.5496 160.888 11.2555C160.441 11.9613 159.823 12.5159 159.035 12.9192C158.247 13.3113 157.353 13.5073 156.353 13.5073ZM156.353 11.3563C157.059 11.3563 157.635 11.1323 158.083 10.6841C158.542 10.2248 158.771 9.61425 158.771 8.85237C158.771 8.09059 158.542 7.48559 158.083 7.03749C157.635 6.57811 157.059 6.34842 156.353 6.34842C155.647 6.34842 155.065 6.57811 154.606 7.03749C154.147 7.48559 153.918 8.09059 153.918 8.85237C153.918 9.61425 154.147 10.2248 154.606 10.6841C155.065 11.1323 155.647 11.3563 156.353 11.3563ZM173.955 11.2219V15.3222H171.396V13.3729H164.726V15.3222H162.168V11.2219H162.555C163.144 11.2106 163.55 10.8801 163.773 10.2304C163.996 9.58061 164.138 8.65631 164.197 7.4576L164.32 4.33184H172.596V11.2219H173.955ZM166.685 7.64248C166.65 8.56105 166.573 9.31175 166.455 9.89429C166.349 10.4768 166.144 10.9194 165.838 11.2219H169.843V6.48294H166.738L166.685 7.64248ZM184.916 8.886C184.916 8.91963 184.899 9.15487 184.864 9.59179H177.681C177.811 10.152 178.117 10.5944 178.599 10.9194C179.082 11.2442 179.681 11.4067 180.399 11.4067C180.893 11.4067 181.328 11.3395 181.704 11.2051C182.093 11.0595 182.452 10.8353 182.781 10.5329L184.246 12.0453C183.352 13.02 182.046 13.5073 180.328 13.5073C179.258 13.5073 178.31 13.3113 177.488 12.9192C176.664 12.5159 176.028 11.9613 175.582 11.2555C175.135 10.5496 174.911 9.74868 174.911 8.85237C174.911 7.96733 175.128 7.17192 175.563 6.46612C176.011 5.74906 176.617 5.19452 177.382 4.8024C178.158 4.3991 179.022 4.19741 179.976 4.19741C180.905 4.19741 181.746 4.38792 182.498 4.76877C183.252 5.1497 183.84 5.69871 184.263 6.41568C184.698 7.12147 184.916 7.94488 184.916 8.886ZM179.993 6.18044C179.37 6.18044 178.846 6.34842 178.423 6.68454C177.999 7.02067 177.741 7.47996 177.646 8.06259H182.323C182.228 7.49123 181.97 7.03749 181.546 6.70136C181.122 6.35405 180.605 6.18044 179.993 6.18044ZM178.14 3.08832C177.787 3.08832 177.493 2.98188 177.258 2.769C177.023 2.54495 176.905 2.26491 176.905 1.92878C176.905 1.59265 177.023 1.31824 177.258 1.10537C177.493 0.881314 177.787 0.769241 178.14 0.769241C178.494 0.769241 178.781 0.881314 179.005 1.10537C179.24 1.31824 179.357 1.59265 179.357 1.92878C179.357 2.26491 179.24 2.54495 179.005 2.769C178.781 2.98188 178.494 3.08832 178.14 3.08832ZM181.704 3.08832C181.352 3.08832 181.057 2.98188 180.822 2.769C180.599 2.54495 180.487 2.26491 180.487 1.92878C180.487 1.59265 180.599 1.31824 180.822 1.10537C181.057 0.881314 181.352 0.769241 181.704 0.769241C182.058 0.769241 182.352 0.881314 182.587 1.10537C182.822 1.31824 182.94 1.59265 182.94 1.92878C182.94 2.26491 182.822 2.54495 182.587 2.769C182.352 2.98188 182.058 3.08832 181.704 3.08832ZM196.174 9.94473H194.85V13.3729H192.133V9.94473H190.809L188.797 13.3729H185.551L188.533 8.70112L185.762 4.33184H188.674L190.774 7.84408H192.133V4.33184H194.85V7.84408H196.191L198.309 4.33184H201.22L198.45 8.70112L201.45 13.3729H198.185L196.174 9.94473ZM202.881 4.33184H205.615V7.8609H209.745V4.33184H212.498V13.3729H209.745V9.99509H205.615V13.3729H202.881V4.33184ZM219.58 13.5073C218.58 13.5073 217.68 13.3113 216.88 12.9192C216.091 12.5159 215.474 11.9613 215.027 11.2555C214.581 10.5496 214.356 9.74868 214.356 8.85237C214.356 7.95615 214.581 7.1551 215.027 6.44931C215.474 5.74352 216.091 5.19452 216.88 4.8024C217.68 4.3991 218.58 4.19741 219.58 4.19741C220.58 4.19741 221.474 4.3991 222.262 4.8024C223.05 5.19452 223.668 5.74352 224.115 6.44931C224.562 7.1551 224.786 7.95615 224.786 8.85237C224.786 9.74868 224.562 10.5496 224.115 11.2555C223.668 11.9613 223.05 12.5159 222.262 12.9192C221.474 13.3113 220.58 13.5073 219.58 13.5073ZM219.58 11.3563C220.285 11.3563 220.862 11.1323 221.309 10.6841C221.769 10.2248 221.998 9.61425 221.998 8.85237C221.998 8.09059 221.769 7.48559 221.309 7.03749C220.862 6.57811 220.285 6.34842 219.58 6.34842C218.874 6.34842 218.291 6.57811 217.833 7.03749C217.374 7.48559 217.145 8.09059 217.145 8.85237C217.145 9.61425 217.374 10.2248 217.833 10.6841C218.291 11.1323 218.874 11.3563 219.58 11.3563ZM234.284 6.48294H229.414V13.3729H226.679V4.33184H234.284V6.48294ZM239.794 13.5073C238.794 13.5073 237.894 13.3113 237.094 12.9192C236.306 12.5159 235.688 11.9613 235.242 11.2555C234.794 10.5496 234.571 9.74868 234.571 8.85237C234.571 7.95615 234.794 7.1551 235.242 6.44931C235.688 5.74352 236.306 5.19452 237.094 4.8024C237.894 4.3991 238.794 4.19741 239.794 4.19741C240.794 4.19741 241.688 4.3991 242.476 4.8024C243.265 5.19452 243.882 5.74352 244.329 6.44931C244.776 7.1551 245 7.95615 245 8.85237C245 9.74868 244.776 10.5496 244.329 11.2555C243.882 11.9613 243.265 12.5159 242.476 12.9192C241.688 13.3113 240.794 13.5073 239.794 13.5073ZM239.794 11.3563C240.5 11.3563 241.076 11.1323 241.523 10.6841C241.982 10.2248 242.211 9.61425 242.211 8.85237C242.211 8.09059 241.982 7.48559 241.523 7.03749C241.076 6.57811 240.5 6.34842 239.794 6.34842C239.088 6.34842 238.506 6.57811 238.047 7.03749C237.588 7.48559 237.359 8.09059 237.359 8.85237C237.359 9.61425 237.588 10.2248 238.047 10.6841C238.506 11.1323 239.088 11.3563 239.794 11.3563ZM0 25.2375H2.73451V30.6151L7.35789 25.2375H9.88148V34.2786H7.146V28.901L2.54075 34.2786H0V25.2375ZM22.0431 34.413C21.0314 34.413 20.119 34.2169 19.3077 33.8248C18.5078 33.4215 17.8779 32.867 17.4198 32.1612C16.9721 31.4553 16.7488 30.6543 16.7488 29.758C16.7488 28.8618 16.9721 28.0608 17.4198 27.355C17.8779 26.6492 18.5078 26.1002 19.3077 25.7081C20.119 25.3048 21.0314 25.1031 22.0431 25.1031C23.0424 25.1031 23.9129 25.3048 24.6545 25.7081C25.4076 26.1002 25.9545 26.666 26.2952 27.4053L24.1601 28.4977C23.6667 27.6686 22.9546 27.2541 22.025 27.2541C21.3072 27.2541 20.7136 27.4782 20.243 27.9263C19.7725 28.3744 19.5367 28.985 19.5367 29.758C19.5367 30.5311 19.7725 31.1416 20.243 31.5897C20.7136 32.0379 21.3072 32.262 22.025 32.262C22.9661 32.262 23.6781 31.8474 24.1601 31.0184L26.2952 32.1275C25.9545 32.8445 25.4076 33.4047 24.6545 33.808C23.9129 34.2113 23.0424 34.413 22.0431 34.413ZM35.9104 27.3886H32.6987V34.2786H29.9632V27.3886H26.7515V25.2375H35.9104V27.3886ZM46.9754 25.2375L42.687 34.8331C42.2518 35.875 41.7106 36.6088 41.0635 37.0346C40.4279 37.4603 39.6576 37.6731 38.7518 37.6731C38.2574 37.6731 37.7697 37.6003 37.2867 37.4547C36.8047 37.3091 36.4105 37.1074 36.1051 36.8497L37.1111 34.9843C37.322 35.1636 37.5635 35.3037 37.8346 35.4045C38.1162 35.5053 38.3929 35.5557 38.664 35.5557C39.0401 35.5557 39.3455 35.4661 39.5812 35.2868C39.816 35.1188 40.0279 34.8331 40.216 34.4298L40.2513 34.3457L36.1404 25.2375H38.9809L41.6457 31.3713L44.3278 25.2375H46.9754ZM58.2714 32.1275V36.2279H55.7125V34.2786H49.0428V36.2279H46.4839V32.1275H46.8723C47.4603 32.1163 47.8659 31.7858 48.0893 31.1361C48.3136 30.4863 48.4548 29.562 48.513 28.3633L48.6371 25.2375H56.9132V32.1275H58.2714ZM51.0013 28.5481C50.966 29.4667 50.8896 30.2174 50.7722 30.7999C50.6663 31.3825 50.4601 31.8251 50.1547 32.1275H54.1596V27.3886H51.0548L51.0013 28.5481ZM69.2333 29.7917C69.2333 29.8253 69.2152 30.0605 69.1798 30.4975H61.9985C62.1274 31.0576 62.4338 31.5001 62.9158 31.825C63.3978 32.1499 63.9981 32.3123 64.7159 32.3123C65.2093 32.3123 65.6446 32.2452 66.0216 32.1107C66.41 31.9651 66.7689 31.741 67.0982 31.4386L68.5623 32.951C67.668 33.9256 66.3623 34.413 64.6452 34.413C63.5743 34.413 62.6275 34.2169 61.8038 33.8248C60.9801 33.4215 60.3454 32.867 59.8978 32.1612C59.4511 31.4553 59.2277 30.6543 59.2277 29.758C59.2277 28.873 59.4454 28.0776 59.8806 27.3718C60.3273 26.6547 60.9334 26.1002 61.6979 25.7081C62.4748 25.3048 63.3395 25.1031 64.2921 25.1031C65.2217 25.1031 66.0626 25.2936 66.8157 25.6744C67.5687 26.0554 68.1567 26.6044 68.5805 27.3213C69.0157 28.0271 69.2333 28.8505 69.2333 29.7917ZM64.3093 27.0861C63.686 27.0861 63.163 27.2541 62.7392 27.5902C62.3154 27.9263 62.0568 28.3856 61.9632 28.9682H66.6391C66.5446 28.3969 66.2859 27.9431 65.8622 27.607C65.4393 27.2597 64.9211 27.0861 64.3093 27.0861ZM71.3436 25.2375H74.0781V28.7666H78.208V25.2375H80.9607V34.2786H78.208V30.9007H74.0781V34.2786H71.3436V25.2375ZM92.1364 25.2375V34.2786H89.3837V30.9176C88.5839 31.2985 87.701 31.4889 86.737 31.4889C85.4543 31.4889 84.4836 31.2144 83.825 30.6655C83.1779 30.1053 82.8543 29.2427 82.8543 28.0776V25.2375H85.607V27.9095C85.607 28.4584 85.754 28.8562 86.0489 29.1027C86.3543 29.3491 86.7895 29.4723 87.3546 29.4723C88.0723 29.4723 88.7481 29.3267 89.3837 29.0354V25.2375H92.1364ZM104.009 29.7917C104.009 29.8253 103.991 30.0605 103.955 30.4975H96.7741C96.903 31.0576 97.2093 31.5001 97.6913 31.825C98.1733 32.1499 98.7737 32.3123 99.4914 32.3123C99.9849 32.3123 100.421 32.2452 100.797 32.1107C101.186 31.9651 101.544 31.741 101.874 31.4386L103.338 32.951C102.445 33.9256 101.138 34.413 99.4208 34.413C98.3499 34.413 97.4031 34.2169 96.5794 33.8248C95.7557 33.4215 95.121 32.867 94.6733 32.1612C94.2267 31.4553 94.0033 30.6543 94.0033 29.758C94.0033 28.873 94.2209 28.0776 94.6562 27.3718C95.1028 26.6547 95.7089 26.1002 96.4734 25.7081C97.2504 25.3048 98.1151 25.1031 99.0677 25.1031C99.9973 25.1031 100.838 25.2936 101.591 25.6744C102.344 26.0554 102.932 26.6044 103.356 27.3213C103.791 28.0271 104.009 28.8505 104.009 29.7917ZM99.0858 27.0861C98.4616 27.0861 97.9385 27.2541 97.5147 27.5902C97.091 27.9263 96.8323 28.3856 96.7388 28.9682H101.415C101.32 28.3969 101.062 27.9431 100.639 27.607C100.215 27.2597 99.6976 27.0861 99.0858 27.0861ZM110.637 34.413C109.625 34.413 108.712 34.2169 107.901 33.8248C107.101 33.4215 106.471 32.867 106.013 32.1612C105.566 31.4553 105.342 30.6543 105.342 29.758C105.342 28.8618 105.566 28.0608 106.013 27.355C106.471 26.6492 107.101 26.1002 107.901 25.7081C108.712 25.3048 109.625 25.1031 110.637 25.1031C111.636 25.1031 112.506 25.3048 113.248 25.7081C114.001 26.1002 114.548 26.666 114.889 27.4053L112.754 28.4977C112.26 27.6686 111.548 27.2541 110.618 27.2541C109.901 27.2541 109.307 27.4782 108.837 27.9263C108.366 28.3744 108.13 28.985 108.13 29.758C108.13 30.5311 108.366 31.1416 108.837 31.5897C109.307 32.0379 109.901 32.262 110.618 32.262C111.56 32.262 112.272 31.8474 112.754 31.0184L114.889 32.1275C114.548 32.8445 114.001 33.4047 113.248 33.808C112.506 34.2113 111.636 34.413 110.637 34.413ZM120.744 30.8504H119.315V34.2786H116.562V25.2375H119.315V28.7497H120.797L123.374 25.2375H126.303L122.985 29.5731L126.532 34.2786H123.285L120.744 30.8504ZM132.037 34.413C131.038 34.413 130.138 34.2169 129.338 33.8248C128.55 33.4215 127.932 32.867 127.485 32.1612C127.038 31.4553 126.815 30.6543 126.815 29.758C126.815 28.8618 127.038 28.0608 127.485 27.355C127.932 26.6492 128.55 26.1002 129.338 25.7081C130.138 25.3048 131.038 25.1031 132.037 25.1031C133.038 25.1031 133.932 25.3048 134.72 25.7081C135.508 26.1002 136.125 26.6492 136.573 27.355C137.02 28.0608 137.243 28.8618 137.243 29.758C137.243 30.6543 137.02 31.4553 136.573 32.1612C136.125 32.867 135.508 33.4215 134.72 33.8248C133.932 34.2169 133.038 34.413 132.037 34.413ZM132.037 32.262C132.744 32.262 133.32 32.0379 133.767 31.5897C134.226 31.1304 134.455 30.5199 134.455 29.758C134.455 28.9962 134.226 28.3913 133.767 27.9431C133.32 27.4838 132.744 27.2541 132.037 27.2541C131.332 27.2541 130.75 27.4838 130.291 27.9431C129.832 28.3913 129.603 28.9962 129.603 29.758C129.603 30.5199 129.832 31.1304 130.291 31.5897C130.75 32.0379 131.332 32.262 132.037 32.262ZM146.743 27.3886H141.872V34.2786H139.137V25.2375H146.743V27.3886ZM152.252 34.413C151.252 34.413 150.351 34.2169 149.552 33.8248C148.763 33.4215 148.146 32.867 147.699 32.1612C147.252 31.4553 147.028 30.6543 147.028 29.758C147.028 28.8618 147.252 28.0608 147.699 27.355C148.146 26.6492 148.763 26.1002 149.552 25.7081C150.351 25.3048 151.252 25.1031 152.252 25.1031C153.252 25.1031 154.145 25.3048 154.934 25.7081C155.722 26.1002 156.34 26.6492 156.786 27.355C157.234 28.0608 157.457 28.8618 157.457 29.758C157.457 30.6543 157.234 31.4553 156.786 32.1612C156.34 32.867 155.722 33.4215 154.934 33.8248C154.145 34.2169 153.252 34.413 152.252 34.413ZM152.252 32.262C152.957 32.262 153.534 32.0379 153.981 31.5897C154.439 31.1304 154.669 30.5199 154.669 29.758C154.669 28.9962 154.439 28.3913 153.981 27.9431C153.534 27.4838 152.957 27.2541 152.252 27.2541C151.545 27.2541 150.963 27.4838 150.505 27.9431C150.046 28.3913 149.816 28.9962 149.816 29.758C149.816 30.5199 150.046 31.1304 150.505 31.5897C150.963 32.0379 151.545 32.262 152.252 32.262ZM172.324 27.3886H169.113V34.2786H166.378V27.3886H163.166V25.2375H172.324V27.3886ZM183.389 25.2375L179.102 34.8331C178.666 35.875 178.125 36.6088 177.478 37.0346C176.842 37.4603 176.072 37.6731 175.166 37.6731C174.672 37.6731 174.184 37.6003 173.701 37.4547C173.219 37.3091 172.825 37.1074 172.519 36.8497L173.525 34.9843C173.737 35.1636 173.978 35.3037 174.248 35.4045C174.531 35.5053 174.807 35.5557 175.078 35.5557C175.455 35.5557 175.76 35.4661 175.996 35.2868C176.231 35.1188 176.442 34.8331 176.631 34.4298L176.666 34.3457L172.554 25.2375H175.395L178.06 31.3713L180.742 25.2375H183.389ZM190.312 25.1031C191.194 25.1031 191.993 25.2991 192.711 25.6912C193.44 26.0722 194.011 26.6155 194.422 27.3213C194.835 28.0159 195.04 28.8282 195.04 29.758C195.04 30.6879 194.835 31.5057 194.422 32.2115C194.011 32.9061 193.44 33.4495 192.711 33.8416C191.993 34.2226 191.194 34.413 190.312 34.413C189.099 34.413 188.147 34.0489 187.452 33.3206V37.5387H184.699V25.2375H187.329V26.2794C188.011 25.4952 189.005 25.1031 190.312 25.1031ZM189.834 32.262C190.541 32.262 191.117 32.0379 191.564 31.5897C192.023 31.1304 192.252 30.5199 192.252 29.758C192.252 28.9962 192.023 28.3913 191.564 27.9431C191.117 27.4838 190.541 27.2541 189.834 27.2541C189.129 27.2541 188.547 27.4838 188.088 27.9431C187.641 28.3913 187.417 28.9962 187.417 29.758C187.417 30.5199 187.641 31.1304 188.088 31.5897C188.547 32.0379 189.129 32.262 189.834 32.262ZM196.97 25.2375H199.705V30.6151L204.329 25.2375H206.851V34.2786H204.117V28.901L199.511 34.2786H196.97V25.2375ZM215.57 29.5731C216.135 29.7412 216.571 29.9989 216.876 30.3462C217.194 30.6935 217.352 31.108 217.352 31.5897C217.352 32.1612 217.147 32.6653 216.735 33.1022C216.323 33.528 215.758 33.8584 215.041 34.0937C214.324 34.329 213.512 34.4466 212.606 34.4466C211.864 34.4466 211.135 34.3738 210.417 34.2281C209.7 34.0825 209.035 33.864 208.423 33.5728L209.165 31.741C210.164 32.2004 211.271 32.43 212.483 32.43C213.129 32.43 213.635 32.3404 214 32.1612C214.376 31.9707 214.564 31.7074 214.564 31.3713C214.564 31.08 214.435 30.8616 214.176 30.716C213.917 30.5591 213.541 30.4806 213.047 30.4806H211.105V28.8505H212.8C213.283 28.8505 213.653 28.7777 213.912 28.6321C214.17 28.4865 214.3 28.2736 214.3 27.9935C214.3 27.7023 214.135 27.4782 213.806 27.3213C213.488 27.1645 213.03 27.0861 212.429 27.0861C211.512 27.0861 210.512 27.2933 209.429 27.7078L208.759 25.8929C210.076 25.3439 211.358 25.0695 212.606 25.0695C213.465 25.0695 214.229 25.1703 214.899 25.3719C215.582 25.5736 216.117 25.8705 216.506 26.2626C216.894 26.6435 217.088 27.0916 217.088 27.607C217.088 28.0328 216.952 28.4192 216.682 28.7666C216.411 29.1027 216.041 29.3715 215.57 29.5731ZM228.62 34.2786V28.8674L225.778 33.4047H224.614L221.843 28.8505V34.2786H219.355V25.2375H222.231L225.267 30.4638L228.496 25.2375H231.073L231.108 34.2786H228.62ZM237.432 25.1031C238.903 25.1031 240.032 25.4392 240.82 26.1114C241.609 26.7723 242.003 27.7751 242.003 29.1195V34.2786H239.427V33.1527C238.909 33.9929 237.945 34.413 236.533 34.413C235.803 34.413 235.168 34.2954 234.627 34.06C234.097 33.8248 233.692 33.5 233.409 33.0854C233.127 32.6709 232.985 32.2004 232.985 31.6738C232.985 30.8336 233.315 30.1726 233.974 29.6909C234.644 29.2091 235.674 28.9682 237.062 28.9682H239.25C239.25 28.3969 239.068 27.96 238.703 27.6575C238.338 27.3438 237.791 27.1869 237.062 27.1869C236.556 27.1869 236.056 27.2653 235.562 27.4221C235.079 27.5678 234.668 27.7694 234.326 28.0271L233.338 26.1954C233.856 25.8481 234.474 25.5793 235.191 25.3887C235.921 25.1983 236.668 25.1031 237.432 25.1031ZM237.221 32.6485C237.692 32.6485 238.109 32.5477 238.473 32.346C238.838 32.1331 239.097 31.8251 239.25 31.4218V30.4975H237.362C236.232 30.4975 235.668 30.8504 235.668 31.5562C235.668 31.8922 235.803 32.1612 236.074 32.3628C236.356 32.5532 236.738 32.6485 237.221 32.6485Z" fill="#00A19A"/>
</svg>
