<svg width="39" height="64" viewBox="0 0 39 64" fill="none" xmlns="http://www.w3.org/2000/svg">
<path d="M18.1516 62.5225C15.5648 59.4044 13.1632 56.1128 10.9617 52.6678C7.95553 48.0646 5.4141 43.1282 3.38044 37.9427C1.51435 33.2864 0.391685 28.3231 0.060232 23.2631C-0.0669813 21.3972 0.00743264 19.5217 0.28237 17.6742C0.873923 13.9071 2.40637 10.3853 4.71519 7.48774C7.02401 4.59016 10.0217 2.42669 13.3855 1.23006C16.7494 0.0334418 20.3519 -0.151028 23.8057 0.696513C27.2594 1.54405 30.4334 3.39153 32.9864 6.04014C35.3688 8.50083 37.1334 11.5737 38.1147 14.971C39.0091 18.241 39.2293 21.6825 38.7595 25.0539C38.3597 28.3834 37.5929 31.6495 36.4755 34.7832C34.6273 39.9653 32.21 44.8898 29.275 49.4513C26.7224 53.4965 23.8949 57.3319 20.8161 60.9257C20.1606 61.6897 19.4732 62.4312 18.7015 63.2981C18.5005 62.9787 18.3314 62.7391 18.1516 62.5225ZM19.7905 6.56481C17.1042 6.49773 14.4596 7.29191 12.192 8.84708C9.92439 10.4022 8.13555 12.6485 7.05194 15.301C5.96856 17.9538 5.63929 20.8935 6.10559 23.7482C6.57211 26.6029 7.81326 29.2441 9.67215 31.3374C11.531 33.4304 13.9241 34.8816 16.548 35.5067C19.1719 36.1319 21.9088 35.9031 24.4121 34.8491C26.9153 33.7953 29.0723 31.9638 30.61 29.5864C32.1476 27.2093 32.9967 24.3934 33.0497 21.4951C33.0986 17.6273 31.7355 13.8939 29.2549 11.1006C26.7742 8.30735 23.375 6.67827 19.7905 6.56481Z" fill="#63C0B9"/>
</svg>
