<svg width="131" height="131" viewBox="0 0 131 131" fill="none" xmlns="http://www.w3.org/2000/svg">
<path d="M86.2451 29.8407L87.8881 28.024L86.1497 26.2092L84.5092 28.1266L86.2451 29.8407ZM95.432 39.4298L93.7888 41.2468L95.4792 43.0111L97.1223 41.1959L95.432 39.4298ZM6.86683 126.322C7.74849 125.293 7.68627 123.69 6.72778 122.743C5.76943 121.796 4.27779 121.863 3.39617 122.892L6.86683 126.322ZM8.6789 116.722C7.79724 117.752 7.85968 119.354 8.81795 120.302C9.77643 121.249 11.268 121.182 12.1496 120.152L8.6789 116.722ZM18.9417 112.219C19.8234 111.19 19.7609 109.587 18.8027 108.64C17.8442 107.693 16.3524 107.76 15.471 108.79L18.9417 112.219ZM20.7533 102.619C19.8719 103.649 19.9341 105.252 20.8926 106.199C21.8511 107.146 23.3428 107.079 24.2243 106.049L20.7533 102.619ZM31.0159 98.116C31.8976 97.0862 31.8351 95.4836 30.8766 94.5366C29.9181 93.5894 28.4264 93.6565 27.5449 94.6862L31.0159 98.116ZM32.8271 88.5157C31.9456 89.5455 32.0081 91.1481 32.9666 92.0951C33.9251 93.0421 35.4166 92.9752 36.2982 91.9453L32.8271 88.5157ZM43.0894 84.0116C43.9709 82.9819 43.9084 81.3792 42.9499 80.4323C41.9912 79.4853 40.4997 79.5524 39.6182 80.5821L43.0894 84.0116ZM44.8999 74.4114C44.0185 75.4414 44.0811 77.0438 45.0396 77.9908C45.9981 78.9377 47.4899 78.8706 48.3713 77.8409L44.8999 74.4114ZM55.162 69.9068C56.0435 68.8768 55.981 67.2744 55.0223 66.3274C54.0638 65.3805 52.5721 65.4476 51.6906 66.4775L55.162 69.9068ZM56.9723 60.3063C56.0909 61.3363 56.1533 62.9387 57.112 63.8857C58.0707 64.8326 59.5623 64.7653 60.4437 63.7356L56.9723 60.3063ZM67.234 55.801C68.1154 54.771 68.0528 53.1686 67.094 52.2216C66.1356 51.2749 64.6438 51.342 63.7626 52.372L67.234 55.801ZM69.0436 46.2005C68.1624 47.2305 68.225 48.8331 69.1838 49.7799C70.1422 50.7268 71.634 50.6595 72.5152 49.6295L69.0436 46.2005ZM79.3053 41.6945C80.1867 40.6645 80.1238 39.0621 79.1651 38.1153C78.2064 37.1684 76.7149 37.2357 75.8336 38.2657L79.3053 41.6945ZM81.1144 32.094C80.2332 33.124 80.2959 34.7266 81.2546 35.6733C82.2133 36.6201 83.7048 36.5527 84.5863 35.5228L81.1144 32.094ZM87.1859 34.3545C88.1199 35.3295 89.6125 35.3063 90.52 34.3028C91.4275 33.2994 91.406 31.6958 90.472 30.7208L87.1859 34.3545ZM94.4912 34.9161C93.5572 33.9411 92.0644 33.9643 91.1569 34.9677C90.2496 35.9711 90.2711 37.575 91.2052 38.5497L94.4912 34.9161ZM100.302 37.6824C101.21 36.6792 101.189 35.0756 100.255 34.1004C99.321 33.1252 97.8281 33.1479 96.9206 34.1511L100.302 37.6824ZM101.864 28.6852C100.957 29.6889 100.978 31.2925 101.912 32.2675C102.847 33.2422 104.339 33.2188 105.247 32.2154L101.864 28.6852ZM111.602 25.1833C112.508 24.1794 112.486 22.5756 111.551 21.6013C110.617 20.6271 109.124 20.651 108.217 21.6551L111.602 25.1833ZM113.156 16.1847C112.25 17.1891 112.273 18.793 113.208 19.767C114.143 20.7408 115.635 20.7161 116.542 19.7117L113.156 16.1847ZM122.891 12.6742C123.798 11.6693 123.774 10.0657 122.839 9.09214C121.903 8.11863 120.411 8.1442 119.504 9.14885L122.891 12.6742ZM124.44 3.67435C123.534 4.67948 123.558 6.28309 124.493 7.25636C125.429 8.22939 126.922 8.20333 127.828 7.1982L124.44 3.67435ZM3.47059 130.288C4.60267 128.966 5.73475 127.644 6.86683 126.322L3.39617 122.892C2.26414 124.214 1.13208 125.536 0 126.858L3.47059 130.288ZM12.1496 120.152C14.4139 117.508 16.6779 114.864 18.9417 112.219L15.471 108.79C13.2069 111.434 10.9429 114.078 8.6789 116.722L12.1496 120.152ZM24.2243 106.049C26.4883 103.405 28.7521 100.76 31.0159 98.116L27.5449 94.6862C25.2811 97.3307 23.0173 99.9749 20.7533 102.619L24.2243 106.049ZM36.2982 91.9453C38.562 89.3008 40.8258 86.6561 43.0894 84.0116L39.6182 80.5821C37.3547 83.2268 35.0909 85.8713 32.8271 88.5157L36.2982 91.9453ZM48.3713 77.8409C50.6349 75.1962 52.8987 72.5512 55.162 69.9068L51.6906 66.4775C49.4273 69.1222 47.1637 71.7667 44.8999 74.4114L48.3713 77.8409ZM60.4437 63.7356C62.7073 61.0906 64.9706 58.4457 67.234 55.801L63.7626 52.372C61.4992 55.0167 59.2357 57.6616 56.9723 60.3063L60.4437 63.7356ZM72.5152 49.6295C74.7788 46.9846 77.0421 44.3394 79.3053 41.6945L75.8336 38.2657C73.5703 40.9106 71.3072 43.5556 69.0436 46.2005L72.5152 49.6295ZM84.5863 35.5228C85.7179 34.2003 86.8494 32.8776 87.9811 31.5551L84.5092 28.1266C83.3775 29.449 82.2461 30.7715 81.1144 32.094L84.5863 35.5228ZM84.602 31.6577L87.1859 34.3545L90.472 30.7208L87.8881 28.024L84.602 31.6577ZM91.2052 38.5497L93.7888 41.2468L97.0749 37.6129L94.4912 34.9161L91.2052 38.5497ZM97.1223 41.1959C98.1821 40.025 99.2421 38.8538 100.302 37.6824L96.9206 34.1511C95.8608 35.3222 94.8012 36.4931 93.7414 37.6638L97.1223 41.1959ZM105.247 32.2154C107.365 29.8723 109.483 27.5283 111.602 25.1833L108.217 21.6551C106.1 23.9996 103.982 26.3429 101.864 28.6852L105.247 32.2154ZM116.542 19.7117C118.658 17.367 120.775 15.0211 122.891 12.6742L119.504 9.14885C117.388 11.4953 115.272 13.8407 113.156 16.1847L116.542 19.7117ZM127.828 7.1982C128.885 6.02487 129.942 4.85106 131 3.677L127.611 0.15387C126.554 1.32768 125.497 2.50102 124.44 3.67435L127.828 7.1982Z" fill="url(#paint0_linear_14_48)"/>
<defs>
<linearGradient id="paint0_linear_14_48" x1="0.102565" y1="65.2386" x2="130.982" y2="65.2386" gradientUnits="userSpaceOnUse">
<stop offset="0.2" stop-color="#E95255"/>
<stop offset="0.47" stop-color="#9CABD8"/>
<stop offset="0.74" stop-color="#68C0BC"/>
</linearGradient>
</defs>
</svg>
