<svg width="251" height="126" viewBox="0 0 251 126" fill="none" xmlns="http://www.w3.org/2000/svg">
<path d="M136.324 119.028L168.281 67.6783C145.383 76.3818 122.646 85.4217 99.8872 94.3689L99.6072 93.9045L133.826 48.6471L120.351 33.9207C119.274 34.5475 100.652 56.4917 94.6203 64.0926C88.158 72.2854 70.2139 93.4404 68.9861 94.2645C68.8461 87.7889 69.4493 81.4995 69.5353 74.7571L0.269172 122.951L0 122.614C0.301623 122.231 0.570794 121.825 0.883309 121.454C4.17894 117.636 7.47479 113.841 10.76 110.023C17.3659 102.341 23.9718 94.6627 30.578 86.9883C38.5913 77.7046 46.6155 68.421 54.6505 59.1375L72.6805 38.2493L78.1842 31.8437L86.6716 39.8392L120.061 0.894257C133.502 17.0594 146.664 33.1202 160.052 49.2388L170.898 38.5626L190.985 60.1819L211.029 81.7662L231.062 103.339L251 124.796L250.731 125.202L180.355 98.6275C182.089 91.2123 183.791 83.9596 185.492 76.7067L185.148 76.5094L160.881 98.059L136.766 119.458L136.324 119.028Z" fill="url(#paint0_linear_14_47)"/>
<defs>
<linearGradient id="paint0_linear_14_47" x1="239.357" y1="11.8141" x2="-30.4138" y2="218.676" gradientUnits="userSpaceOnUse">
<stop offset="0.26" stop-color="#68C0BC"/>
<stop offset="0.53" stop-color="#9CABD8"/>
<stop offset="0.8" stop-color="#E95255"/>
</linearGradient>
</defs>
</svg>
